<svg width="98" height="98" xmlns="http://www.w3.org/2000/svg" xmlns:xlink="http://www.w3.org/1999/xlink" xml:space="preserve" overflow="hidden"><g transform="translate(-115 -11)"><path d="M173.528 21.2083 141.542 21.2083C139.287 21.2083 137.458 23.0365 137.458 25.2917L137.458 94.7083C137.458 96.9636 139.287 98.7917 141.542 98.7917L177.506 98.7917C183.295 98.7917 188.737 96.2959 192.668 92.037 196.584 87.7948 198.708 82.1386 198.708 76.3333 198.708 70.5281 196.584 64.8718 192.668 60.6297 191.775 59.6619 190.804 58.7852 189.768 58.0082 192.93 53.9518 194.625 48.8663 194.625 43.6667 194.625 37.874 192.52 32.2229 188.63 27.9785 184.723 23.7162 179.304 21.2083 173.528 21.2083ZM173.528 53.875C175.694 53.875 177.891 52.9411 179.6 51.0773 181.325 49.1955 182.375 46.5377 182.375 43.6667 182.375 40.7956 181.325 38.1378 179.6 36.2561 177.891 34.3922 175.694 33.4583 173.528 33.4583L149.708 33.4583 149.708 53.875 173.528 53.875ZM149.708 66.125 149.708 86.5417 177.506 86.5417C179.715 86.5417 181.943 85.5956 183.667 83.7283 185.406 81.8446 186.458 79.1921 186.458 76.3333 186.458 73.4746 185.406 70.8221 183.667 68.9384 181.943 67.0711 179.715 66.125 177.506 66.125L149.708 66.125Z" fill="#CDCDCD" fill-rule="evenodd"/></g></svg>