<svg width="89" height="89" xmlns="http://www.w3.org/2000/svg" xmlns:xlink="http://www.w3.org/1999/xlink" xml:space="preserve" overflow="hidden"><g transform="translate(-227 -14)"><path d="M297.92 33.467C297.92 35.7711 296.052 37.6389 293.748 37.6389L282.849 37.6389 268.942 79.3576 277.06 79.3576C279.365 79.3576 281.232 81.2256 281.232 83.5295 281.232 85.8338 279.365 87.7014 277.06 87.7014L263.183 87.7014C263.173 87.7014 263.164 87.7024 263.155 87.7024 263.145 87.7024 263.136 87.7014 263.127 87.7014L249.248 87.7014C246.944 87.7014 245.076 85.8338 245.076 83.5295 245.076 81.2256 246.944 79.3576 249.248 79.3576L260.147 79.3576 274.054 37.6389 265.935 37.6389C263.632 37.6389 261.764 35.7711 261.764 33.467 261.764 31.163 263.632 29.2952 265.935 29.2952L279.913 29.2952C279.918 29.2952 279.924 29.295 279.929 29.2952L293.748 29.2952C296.052 29.2952 297.92 31.163 297.92 33.467Z" fill="#CDCDCD"/></g></svg>